<svg width="2473" height="366" viewBox="0 0 2473 366" fill="none" xmlns="http://www.w3.org/2000/svg">
<g clip-path="url(#clip0_71_11002)">
<rect width="2473" height="366" fill="white"/>
<rect x="1" y="43.248" width="126.353" height="279.771" fill="#FFF300"/>
<path d="M248 184L126.334 367.597L126.334 0.402618L248 184Z" fill="#FFF300"/>
<rect x="248" y="42.248" width="126.353" height="279.771" fill="black"/>
<path d="M495 183L373.334 366.597L373.334 -0.597382L495 183Z" fill="black"/>
<rect x="495" y="43.248" width="126.353" height="279.771" fill="#FFF300"/>
<path d="M742 184L620.334 367.597L620.334 0.402618L742 184Z" fill="#FFF300"/>
<rect x="743" y="44.248" width="126.353" height="279.771" fill="black"/>
<path d="M990 185L868.334 368.597L868.334 1.40262L990 185Z" fill="black"/>
<rect x="990" y="43.248" width="126.353" height="279.771" fill="#FFF300"/>
<path d="M1237 184L1115.33 367.597V0.402618L1237 184Z" fill="#FFF300"/>
<rect x="1237" y="44.248" width="126.353" height="279.771" fill="black"/>
<path d="M1484 185L1362.33 368.597V1.40262L1484 185Z" fill="black"/>
<rect x="1484" y="41.248" width="126.353" height="279.771" fill="#FFF300"/>
<path d="M1731 182L1609.33 365.597V-1.59738L1731 182Z" fill="#FFF300"/>
<rect x="1732" y="42.248" width="126.353" height="279.771" fill="black"/>
<path d="M1979 183L1857.33 366.597V-0.597382L1979 183Z" fill="black"/>
<rect x="1979" y="41.248" width="126.353" height="279.771" fill="#FFF300"/>
<path d="M2226 182L2104.33 365.597V-1.59738L2226 182Z" fill="#FFF300"/>
<rect x="2226" y="42.248" width="126.353" height="279.771" fill="black"/>
<path d="M2473 183L2351.33 366.597V-0.597382L2473 183Z" fill="black"/>
</g>
<defs>
<clipPath id="clip0_71_11002">
<rect width="2473" height="366" fill="white"/>
</clipPath>
</defs>
</svg>
