<svg width="2147" height="274" viewBox="0 0 2147 274" fill="none" xmlns="http://www.w3.org/2000/svg">
<g clip-path="url(#clip0_18_1421)">
<rect width="2147" height="274" fill="white"/>
<path d="M-0.106925 0H46.25L-28.8931 274.5H-75.25L-0.106925 0Z" fill="#01A14B"/>
<path d="M91.3931 0H137.75L62.6069 274.5H16.25L91.3931 0Z" fill="#01A14B"/>
<path d="M186.643 0H233L157.857 274.5H111.5L186.643 0Z" fill="#01A14B"/>
<path d="M278.143 0H324.5L249.357 274.5H203L278.143 0Z" fill="#01A14B"/>
<path d="M373.393 0H419.75L344.607 274.5H298.25L373.393 0Z" fill="#01A14B"/>
<path d="M464.893 0H511.25L436.107 274.5H389.75L464.893 0Z" fill="#01A14B"/>
<path d="M560.143 0H606.5L531.357 274.5H485L560.143 0Z" fill="#01A14B"/>
<path d="M651.643 0H698L622.857 274.5H576.5L651.643 0Z" fill="#01A14B"/>
<path d="M746.893 0H793.25L718.107 274.5H671.75L746.893 0Z" fill="#01A14B"/>
<path d="M838.393 0H884.75L809.607 274.5H763.25L838.393 0Z" fill="#01A14B"/>
<path d="M933.643 0H980L904.857 274.5H858.5L933.643 0Z" fill="#01A14B"/>
<path d="M1025.14 0H1071.5L996.357 274.5H950L1025.14 0Z" fill="#01A14B"/>
<path d="M1120.39 0H1166.75L1091.61 274.5H1045.25L1120.39 0Z" fill="#01A14B"/>
<path d="M1211.89 0H1258.25L1183.11 274.5H1136.75L1211.89 0Z" fill="#01A14B"/>
<path d="M-0.106925 0H46.25L-28.8931 274.5H-75.25L-0.106925 0Z" fill="#01A14B"/>
<path d="M91.3931 0H137.75L62.6069 274.5H16.25L91.3931 0Z" fill="#01A14B"/>
<path d="M186.643 0H233L157.857 274.5H111.5L186.643 0Z" fill="#01A14B"/>
<path d="M278.143 0H324.5L249.357 274.5H203L278.143 0Z" fill="#01A14B"/>
<path d="M373.393 0H419.75L344.607 274.5H298.25L373.393 0Z" fill="#01A14B"/>
<path d="M464.893 0H511.25L436.107 274.5H389.75L464.893 0Z" fill="#01A14B"/>
<path d="M560.143 0H606.5L531.357 274.5H485L560.143 0Z" fill="#01A14B"/>
<path d="M651.643 0H698L622.857 274.5H576.5L651.643 0Z" fill="#01A14B"/>
<path d="M746.893 0H793.25L718.107 274.5H671.75L746.893 0Z" fill="#01A14B"/>
<path d="M838.393 0H884.75L809.607 274.5H763.25L838.393 0Z" fill="#01A14B"/>
<path d="M933.643 0H980L904.857 274.5H858.5L933.643 0Z" fill="#01A14B"/>
<path d="M1025.14 0H1071.5L996.357 274.5H950L1025.14 0Z" fill="#01A14B"/>
<path d="M1120.39 0H1166.75L1091.61 274.5H1045.25L1120.39 0Z" fill="#01A14B"/>
<path d="M1211.89 0H1258.25L1183.11 274.5H1136.75L1211.89 0Z" fill="#01A14B"/>
<path d="M1307.14 0H1353.5L1278.36 274.5H1232L1307.14 0Z" fill="#01A14B"/>
<path d="M1398.64 0H1445L1369.86 274.5H1323.5L1398.64 0Z" fill="#01A14B"/>
<path d="M1493.89 0H1540.25L1465.11 274.5H1418.75L1493.89 0Z" fill="#01A14B"/>
<path d="M1585.39 0H1631.75L1556.61 274.5H1510.25L1585.39 0Z" fill="#01A14B"/>
<path d="M1680.64 0H1727L1651.86 274.5H1605.5L1680.64 0Z" fill="#01A14B"/>
<path d="M1772.14 0H1818.5L1743.36 274.5H1697L1772.14 0Z" fill="#01A14B"/>
<path d="M1867.39 0H1913.75L1838.61 274.5H1792.25L1867.39 0Z" fill="#01A14B"/>
<path d="M1958.89 0H2005.25L1930.11 274.5H1883.75L1958.89 0Z" fill="#01A14B"/>
<path d="M2054.14 0H2100.5L2025.36 274.5H1979L2054.14 0Z" fill="#01A14B"/>
<path d="M2145.64 0H2192L2116.86 274.5H2070.5L2145.64 0Z" fill="#01A14B"/>
<path d="M1307.14 0H1353.5L1278.36 274.5H1232L1307.14 0Z" fill="#01A14B"/>
<path d="M1398.64 0H1445L1369.86 274.5H1323.5L1398.64 0Z" fill="#01A14B"/>
<path d="M1493.89 0H1540.25L1465.11 274.5H1418.75L1493.89 0Z" fill="#01A14B"/>
<path d="M1585.39 0H1631.75L1556.61 274.5H1510.25L1585.39 0Z" fill="#01A14B"/>
<path d="M1680.64 0H1727L1651.86 274.5H1605.5L1680.64 0Z" fill="#01A14B"/>
<path d="M1772.14 0H1818.5L1743.36 274.5H1697L1772.14 0Z" fill="#01A14B"/>
<path d="M1867.39 0H1913.75L1838.61 274.5H1792.25L1867.39 0Z" fill="#01A14B"/>
<path d="M1958.89 0H2005.25L1930.11 274.5H1883.75L1958.89 0Z" fill="#01A14B"/>
<path d="M2054.14 0H2100.5L2025.36 274.5H1979L2054.14 0Z" fill="#01A14B"/>
<path d="M2145.64 0H2192L2116.86 274.5H2070.5L2145.64 0Z" fill="#01A14B"/>
</g>
<defs>
<clipPath id="clip0_18_1421">
<rect width="2147" height="274" fill="white"/>
</clipPath>
</defs>
</svg>
